<svg width="24" height="24" viewBox="0 0 24 24" fill="none" xmlns="http://www.w3.org/2000/svg">
<path d="M9.97013 18C10.2378 18 10.4636 17.9079 10.6476 17.7238L15.6571 12.7615C15.8913 12.5356 16 12.2929 16 12C16 11.7071 15.8913 11.4561 15.6655 11.2385L10.6476 6.27615C10.4636 6.09205 10.2378 6 9.97013 6C9.43489 6 9 6.42678 9 6.96234C9 7.23013 9.10872 7.4728 9.30108 7.67364L13.7001 12.0084L9.30108 16.3347C9.10872 16.5272 9 16.7699 9 17.0377C9 17.5732 9.43489 18 9.97013 18Z" fill="#AEAFB4"/>
</svg>
